<?xml version="1.0" encoding="UTF-8"?>
<svg width="200" height="200" version="1.1" viewBox="0 0 200 200" xmlns="http://www.w3.org/2000/svg">
 <rect width="200" height="200" fill="#f3f4f6"/>
 <g transform="matrix(8.3333 0 0 8.3333 100 100)">
  <path d="m0-12c-3.3137 0-6 2.6863-6 6 0 2.0815 1.0608 3.9175 2.6719 5h6.6562c1.6111-1.0825 2.6719-2.9185 2.6719-5 0-3.3137-2.6863-6-6-6zm0 2c2.2091 0 4 1.7909 4 4 0 2.2091-1.7909 4-4 4-2.2091 0-4-1.7909-4-4 0-2.2091 1.7909-4 4-4z" fill="#9ca3af"/>
  <path d="m0 6c-4.4183 0-8 3.5817-8 8h16c0-4.4183-3.5817-8-8-8zm0 2c3.3137 0 6 2.6863 6 6h-12c0-3.3137 2.6863-6 6-6z" fill="#9ca3af"/>
 </g>
</svg> 